<svg id="Ebene_1" data-name="Ebene 1" xmlns="http://www.w3.org/2000/svg" viewBox="0 0 907 133.87"><defs><style>.cls-1{fill:#005a9a;}</style></defs><title>PAZ-Wortmarke-RGB</title><path class="cls-1" d="M545.55,96.76l.15-78.48C505.15,29.14,503.31,18,503.31,18,500.81,10,526,15.8,526,15.8l1-.29c-38.54-15.3-37.9,3.66-37.9,3.66.4,14,22.3,15.95,22.3,15.95l-29,51.59c-3.59-1.62-12.05-2.69-17.14-1.78-12.94,2.45-14.57,9.54-14.57,14.08.33,9.07,11.24,13.28,15.2,13.94,3.54.59,12.67,1.78,19.07-3.35l-.28-.29c-44.86,6.85-30.09-37.35,20.85,5.1l9.55-9.7c-8.57-6.69-18.49-11.95-31.57-17.43l7.15-12,41.83,0V96.78s.35,5.59-4,7.93l10.4,9.7,10.55-9.7C545,102.31,545.55,99,545.55,96.76Zm-13-31.16-36.07.12,16.34-30.6s12.8.34,19.75-1.2Z" transform="translate(-2.29 -9.54)"/><path class="cls-1" d="M829.86,97.45c0,2.94-.31,4.39-4.56,7l10.38,9.91s5.6-5.77,10.54-9.91c-3.6-3.2-4.08-4.64-4.08-9V60.76c0-3.74.13-6.68.27-8.94a136.17,136.17,0,0,0,13.88,4.27c-1.6,2.67-2.14,5.2-2.14,13.21,0,6,.27,14.68.27,22,0,7.6-.44,11.93-2.65,13.1l8.26,10,9.31-9.87c-3.34-3-2.65-5.18-2.65-9.31V60.89c0-8.54.27-10.54,4.54-14.41-6.8-.67-15.34-3.87-17.61-5.61l-11,9.48a19.26,19.26,0,0,1,1.21-5.61c-1.77-1.16-4-3-5.11-3.87L825.33,52c3.47,2.67,4.53,4.27,4.53,7.74" transform="translate(-2.29 -9.54)"/><path class="cls-1" d="M692,97.59c0,2.93-1.19,4.57-5.27,7.12l9.79,9.7s7-5.54,11.9-9.68c-3.61-3.2-4.14-4.74-4.14-9.15V60.89c0-3.74.14-6.67.27-8.94a68.18,68.18,0,0,0,12.14,2.93V97.59c0,2.93-.48,4.4-4.39,7.12l9,9.7s6.89-5.54,11.82-9.68c-3.6-3.2-4.13-4.74-4.13-9.15V64.09c0-3.74.13-8.81.4-11.48,3.6.67,8.94,1.61,12,2v43c0,2.93-.23,4.74-4.08,7.12,0,0,9.16,9.7,9.08,9.7s6.48-5.54,11.81-9.68c-4-3.2-4.53-4.74-4.53-9.15V54.48c0-4.53.8-6.27,2.53-8.27-5.34-.94-11.64-3.74-14.71-5.21,0,0-11.56,9.66-11.71,9.75l-.27-.27a25.71,25.71,0,0,0,.54-4.27c-3.87-.8-9-3.47-12.45-5.21l-12.78,9.48A19.32,19.32,0,0,1,706,44.87,44.26,44.26,0,0,1,701,41L687.47,52.08c3.47,2.67,4.53,4.27,4.53,7.74" transform="translate(-2.29 -9.54)"/><path class="cls-1" d="M803.11,93.26c0,5.87-.33,7.77-4.47,11.24l10.83,9.83,10.77-9.83c-4.71-3.69-4.85-8-4.85-11.24V58.43c0-5.34.8-8.27,3.6-11.87-3.87-2-9.66-5.69-9.66-5.69L798.17,51c3.74,2.13,4.94,3.2,4.94,4.8" transform="translate(-2.29 -9.54)"/><path class="cls-1" d="M582,94.69c0,5.87,0,6.55-4.1,10l10.31,9.7,10.3-9.7c-4-4.27-4.23-4.15-4.23-7.48l.15-79-13.25,8s.82,16.54.82,24.82" transform="translate(-2.29 -9.54)"/><path class="cls-1" d="M557.43,97.27c0,3,.21,3.76-4.35,7.44l10.5,9.7,10.5-9.53c-4-4.27-4.37-4.32-4.37-7.65l.15-79-13.24,8s.81,16.54.81,24.82" transform="translate(-2.29 -9.54)"/><path class="cls-1" d="M672.16,114.41c4.71-7.45,10.35-16.77,10.35-16.77l-.94-.62-3.34,5.44A53.88,53.88,0,0,0,666,98.58V88C676.26,79,685.6,64.56,685.6,61.75c0-3.07-8.35-14.74-16-20.88L652.1,52.68c1.34,5.07,1.89,35.52,0,56.21ZM666,53.48c4,3.74,9.74,11.61,9.74,17.61,0,4.14-4.71,11.09-9.74,15.43Z" transform="translate(-2.29 -9.54)"/><path class="cls-1" d="M781.94,114.41c4.76-7.44,10.55-16.77,10.55-16.77l-.93-.62-3.35,5.44A53.88,53.88,0,0,0,776,98.58V88c10.28-9.07,19.62-23.48,19.62-26.29,0-3.07-8.34-14.74-16-20.88L762.09,52.68c1.33,5.07,1.88,35.52,0,56.21Zm-6-60.93c4,3.74,9.75,11.61,9.75,17.61,0,4.14-4.71,11.09-9.75,15.43Z" transform="translate(-2.29 -9.54)"/><path class="cls-1" d="M895.65,114.41c4.84-7.42,10.55-16.77,10.55-16.77l-.93-.62-3.35,5.44a53.81,53.81,0,0,0-12.24-3.88V88C900,79,909.29,64.56,909.29,61.75c0-3.07-8.34-14.74-15.95-20.88L875.8,52.68c1.33,5.07,1.89,35.52,0,56.21Zm-6-60.93c4,3.74,9.74,11.61,9.74,17.61,0,4.14-4.71,11.09-9.74,15.43Z" transform="translate(-2.29 -9.54)"/><circle class="cls-1" cx="807" cy="20.59" r="7.09"/><path class="cls-1" d="M620,121.81c5.41.53,10.5,6.28,18.18,13.2-.08-.14,0-.74,2.67-3.31,3.43-3.21,7-6.14,6.46-9.3-1.38-7.49-4.82-39.08-4.23-56.57.28-8.31,1.79-16.06,10.89-24l-.39-.92c-9.24,5.8-31.21,0-31.21,0l-15.8,12.53c1.73,2.64,2.13,9.63,2.13,27.57,0,14.25-.69,19.23-4,23.71l14.89,9.7,13.5-9.94a.19.19,0,0,0,0,.08l.65,8.62A54.49,54.49,0,0,0,637,128.94c-4.47-2.59-11.17-8.24-19.21-8.59,0,0-3.69-.19-5.46,1m19.38-45.5c0,8,.4,17.41,1.2,26l-3.06,2.24a82.26,82.26,0,0,0-10.22-7,76.27,76.27,0,0,0,1.33-14.91v-29a70.4,70.4,0,0,0,14.73,4.23C632.74,62.14,631.68,67.54,631.68,75.86Z" transform="translate(-2.29 -9.54)"/><circle class="cls-1" cx="612.93" cy="116.69" r="5.67"/><path class="cls-1" d="M241,113.91c11.59-31.93,22.6-31.25,3-55.25a94,94,0,0,0,11.21-11.61,51.18,51.18,0,0,1-14.66-6s-9.63,6.93-14.43,9.74V27.3a39.35,39.35,0,0,0,11.47,6.54c5.1-8.94,6-9.86,6-9.86a64.7,64.7,0,0,1-12.76-6.69c-4,4-12.14,9.08-18.94,13.21,2,6.27,3.05,87.21,1.58,111.65l.85,1.22,11.85-11.79V108.91l13.3,5.5Zm2.76-57.65A37.53,37.53,0,0,1,228,65.6v.93c15.88,4.64,19.49,29.6,15.77,36.33-2.24,3.22-8.41-1-17.64-5.67V52.66c1.94-1.48,3.58-1.74,6.94-.27Z" transform="translate(-2.29 -9.54)"/><path class="cls-1" d="M360.53,51.86c0-13.15,0-23.62,0-23.62,3.87,2.8,7,4.08,10.5,6.39,6.27-8.23,7.79-9.76,7.79-9.76A69,69,0,0,1,365.42,17c-4,4-12.41,10.41-19.21,14.54a74.65,74.65,0,0,1,2,18.82v56.24c0,3.47,0,5.4-.56,7.27l1.22.51,11.62-9.74V52.79" transform="translate(-2.29 -9.54)"/><path class="cls-1" d="M360.51,52.77c4.66,1.34,10.09,2.55,14.36,3.35-2.27,4.54-2.67,11.21-2.67,20.69,0,10.14.94,21.48.93,25.35-.08,22.88-14.55,33.41-14.55,33.41l.71,1.27c16.85-11.23,26-24.4,26-40.68,0-4-.8-10.14-.8-29.89,0-13.48.54-16.95,2.94-20.69A27.23,27.23,0,0,1,375,41s-7.38,5.84-14.45,10.78" transform="translate(-2.29 -9.54)"/><path class="cls-1" d="M311.9,99.07c0,5.2-.67,7.34-2.67,10.14,3.33.93,21.82,5.2,21.82,5.2l11-15.7-1-.57-3.93,5.54a69.63,69.63,0,0,1-13-3.81V60.37c0-2.54.14-5.2.27-7.47a17.1,17.1,0,0,1,10.14,11.47h.94a83.09,83.09,0,0,1,6.67-12.94,63.56,63.56,0,0,0-11.66-10.28L309.36,53c1.74,1.74,2.54,3.6,2.54,7.74" transform="translate(-2.29 -9.54)"/><path class="cls-1" d="M287.51,142.26l.67,1.1,12.14-11.78V28.35c3.87,2.8,7,4.08,10.51,6.39,6.25-8.32,7.79-9.76,7.79-9.76a68.65,68.65,0,0,1-13.36-7.84c-4,4-12.41,10.41-19.22,14.55,2.49,8.14,2.32,60.31,2.14,65.61" transform="translate(-2.29 -9.54)"/><path class="cls-1" d="M164.5,96.67c0,3.47-.78,4.91-3.85,8.11l12.16,9.63,13.45-9.71,10.08,9.71s9.49-9.63,9.35-9.63l-4.36-8.11V57.83c0-5.33.8-8.27,3.6-11.87a92.13,92.13,0,0,1-8.41-4.81l-10,9.21c2.91,1.55,2.57,3.2,2.57,4.81v43l-6.17,4.78-6.11-4.78V57.83c0-5.33.81-8.27,3.61-11.87A92.13,92.13,0,0,1,172,41.15l-10.26,9.21c3.34,2.14,2.79,3.2,2.79,4.81" transform="translate(-2.29 -9.54)"/><path class="cls-1" d="M90.47,98.94c0,2.8-.58,3.43-4.26,5.84l15.36,9.63,14.09-11.91-.77-.66s-1.93,1.54-2.81,2.22l-9.33-3.92V53c5.07,4.8,8.29,7.87,8.29,11.34a8,8,0,0,1-1.33,4l1.06.8c7.08-9.08,9.38-11.5,9.38-12.84s-3.42-5.71-6.76-15.19l-9.89,9.49-.68-.11.82-5.42-4.39-4L85.93,52.23C89.4,54.9,90.47,56.5,90.47,60" transform="translate(-2.29 -9.54)"/><path class="cls-1" d="M264.06,93.54c0,5.87-.33,7.77-4.47,11.24l10.85,9.63,10.75-9.63c-4.71-3.69-4.85-8-4.85-11.24V58.71c0-5.34.8-8.27,3.6-11.87-3.87-2-9.66-5.69-9.66-5.69L259.12,51.24c3.74,2.13,4.94,3.2,4.94,4.8" transform="translate(-2.29 -9.54)"/><path class="cls-1" d="M144.32,114.41c4.83-7.42,10.38-16.6,10.38-16.6l-.94-.62-3.34,5.44a53.83,53.83,0,0,0-12.25-3.87V88.21c10.28-9.07,19.62-23.48,19.62-26.29,0-3.07-8.35-14.74-16-20.88L124.29,52.85c1.34,5.07,1.89,35.52,0,56.22Zm-6.15-60.76c4,3.74,9.74,11.61,9.74,17.62,0,4.13-4.71,11.08-9.74,15.42Z" transform="translate(-2.29 -9.54)"/><path class="cls-1" d="M414.06,114.3c4.84-7.42,10.38-16.49,10.38-16.49l-.94-.62-3.34,5.44a53.83,53.83,0,0,0-12.25-3.87V88.21c10.28-9.07,19.62-23.48,19.62-26.29,0-3.07-8.35-14.74-15.95-20.88L394,52.85c1.34,5.07,1.89,35.52.05,56.22Zm-6.15-60.65c4,3.74,9.74,11.61,9.74,17.62,0,4.13-4.7,11.08-9.74,15.42Z" transform="translate(-2.29 -9.54)"/><circle class="cls-1" cx="268.07" cy="20.59" r="7.09"/><path class="cls-1" d="M81.44,22.9c-9.29.21-13.47-2.76-18.14-5,0,0-10.44,9.2-17.91,15.6,0-14.44,4.15-18.31,4.15-18.31l-.71-1.3A28,28,0,0,1,33.16,19h-12C-11.07,20.38,4.25,46.54,21,53.17l-.46-1.69c0,.09-19.08-17.16-4.65-18.44H33.14l.08,57.11c-5.17-1.8-11.79-2.82-17.13-1.1-8.5,3-6.7,15.86-2.64,19.39h0a5.87,5.87,0,1,0-1.81-5.05c-1.85-7.06-1-16,21.6-1.81L33.43,142l.85,1.43,11.11-8.48V107l3,1.29,1,.43h0l13.18,5.67,18-12C79.22,92,77,47.87,81.44,22.9ZM65.61,105,49.9,97h0l-2.8-1.44-1.71-.88V35.16l2-1.72h0l2.58-2.29h0l2-1.79s16.31,4.39,16,5.53C64,48.54,65.61,105,65.61,105Z" transform="translate(-2.29 -9.54)"/><path class="cls-1" d="M588.16,35.84" transform="translate(-2.29 -9.54)"/></svg>